<svg width="328" height="116" viewBox="0 0 328 116" fill="none" xmlns="http://www.w3.org/2000/svg">
<g clip-path="url(#clip0)">
<path d="M102.48 65.77C102.56 65.58 102.63 65.39 102.7 65.2C102.81 64.95 102.91 64.7 102.99 64.43C103.05 64.29 103.1 64.14 103.15 63.99C103.23 63.8 103.31 63.6 103.37 63.4C103.46 63.2 103.53 62.99 103.6 62.79C103.68 62.6 103.75 62.41 103.82 62.21C103.91 62.01 103.99 61.8 104.06 61.59C104.15 61.39 104.22 61.18 104.29 60.97C104.37 60.78 104.44 60.59 104.5 60.4C104.58 60.21 104.65 60.02 104.72 59.83C104.8 59.64 104.88 59.44 104.95 59.24C105.04 59.04 105.11 58.84 105.18 58.63C105.26 58.44 105.33 58.25 105.4 58.05C105.51 57.8 105.61 57.54 105.69 57.28C105.75 57.14 105.8 57 105.84 56.86C105.93 56.66 106.01 56.45 106.08 56.24C106.16 56.05 106.23 55.86 106.3 55.67C106.38 55.48 106.46 55.28 106.52 55.08C106.61 54.88 106.69 54.67 106.76 54.46C106.85 54.25 106.93 54.04 107 53.82C107.08 53.64 107.14 53.45 107.2 53.27C107.28 53.08 107.35 52.89 107.42 52.69C107.51 52.49 107.58 52.28 107.66 52.07C107.74 51.88 107.81 51.69 107.88 51.5C107.96 51.31 108.04 51.11 108.1 50.91C108.21 50.66 108.31 50.39 108.4 50.13C108.45 50 108.5 49.86 108.55 49.72C108.64 49.51 108.72 49.3 108.79 49.09C108.87 48.91 108.94 48.72 109 48.52C109.09 48.31 109.17 48.1 109.24 47.88C109.32 47.69 109.39 47.49 109.46 47.29C109.54 47.1 109.61 46.91 109.68 46.71C109.76 46.52 109.83 46.33 109.9 46.13C109.98 45.94 110.06 45.74 110.12 45.54C110.21 45.34 110.29 45.13 110.36 44.92C110.44 44.73 110.51 44.54 110.58 44.34C110.69 44.09 110.79 43.84 110.87 43.57C110.93 43.43 110.98 43.29 111.03 43.15C111.11 42.96 111.19 42.76 111.26 42.56C111.35 42.36 111.43 42.15 111.5 41.94C111.58 41.75 111.65 41.56 111.72 41.37C111.83 41.12 111.93 40.86 112.01 40.6C112.07 40.46 112.12 40.32 112.17 40.18C112.26 39.98 112.34 39.77 112.41 39.56C112.49 39.37 112.56 39.18 112.63 38.99C112.71 38.8 112.79 38.6 112.85 38.4C112.94 38.2 113.02 37.99 113.09 37.78C113.18 37.57 113.26 37.36 113.33 37.15C113.41 36.97 113.47 36.78 113.54 36.59C113.94 35.67 114.16 34.66 114.16 33.59C114.15 29.4 110.72 26 106.49 26C103.11 26 100.24 28.18 99.22 31.19C99.13 31.4 99.05 31.61 98.98 31.82C98.9 32 98.84 32.19 98.77 32.38C98.69 32.57 98.62 32.76 98.55 32.95C98.46 33.14 98.39 33.35 98.32 33.55C98.23 33.75 98.15 33.96 98.08 34.17C98 34.36 97.93 34.55 97.86 34.74C97.75 34.99 97.65 35.25 97.57 35.51C97.51 35.65 97.46 35.79 97.41 35.93C97.32 36.13 97.25 36.34 97.18 36.55C97.1 36.74 97.03 36.93 96.96 37.12C96.88 37.31 96.8 37.51 96.73 37.71C96.62 37.96 96.52 38.22 96.44 38.49C96.38 38.63 96.33 38.77 96.29 38.91C96.2 39.11 96.12 39.32 96.05 39.53C95.97 39.72 95.9 39.91 95.83 40.1C95.74 40.29 95.67 40.5 95.6 40.7C95.51 40.9 95.43 41.11 95.36 41.32C95.27 41.52 95.2 41.72 95.13 41.93C95.05 42.12 94.97 42.32 94.91 42.53C94.83 42.71 94.76 42.9 94.7 43.09C94.61 43.29 94.54 43.5 94.47 43.71C94.46 43.74 94.44 43.78 94.43 43.81C94.37 43.67 94.3 43.53 94.23 43.39C94.15 43.18 94.06 42.97 93.96 42.77C93.89 42.59 93.82 42.42 93.73 42.26C93.64 42.02 93.53 41.78 93.42 41.54C93.35 41.38 93.28 41.22 93.21 41.06C93.12 40.83 93.02 40.61 92.92 40.39C92.84 40.19 92.76 40 92.66 39.81C92.58 39.61 92.5 39.42 92.4 39.23C92.32 39.02 92.23 38.81 92.13 38.61C92.06 38.42 91.97 38.23 91.88 38.05C91.8 37.83 91.7 37.62 91.6 37.42C91.52 37.22 91.43 37.02 91.33 36.82C91.26 36.63 91.17 36.45 91.08 36.26C91 36.04 90.9 35.84 90.8 35.63C90.72 35.43 90.64 35.24 90.54 35.05C90.46 34.85 90.37 34.65 90.28 34.46C90.2 34.26 90.11 34.06 90.02 33.87C89.94 33.66 89.85 33.46 89.75 33.27C89.67 33.06 89.58 32.86 89.48 32.66C89.4 32.46 89.32 32.27 89.23 32.09C89.15 31.88 89.06 31.68 88.96 31.49C88.88 31.29 88.79 31.09 88.7 30.9C87.62 28.02 84.84 26 81.58 26C78.32 26 75.54 28.02 74.43 30.87C74.34 31.06 74.25 31.26 74.17 31.46C74.07 31.66 73.98 31.86 73.9 32.06C73.81 32.25 73.72 32.44 73.65 32.63C73.55 32.83 73.46 33.03 73.38 33.24C73.28 33.44 73.19 33.64 73.11 33.84C73.02 34.03 72.93 34.22 72.86 34.41C72.76 34.62 72.66 34.83 72.58 35.05C72.48 35.25 72.39 35.45 72.31 35.66C72.22 35.84 72.14 36.03 72.06 36.22C71.97 36.41 71.88 36.6 71.81 36.79C71.71 36.99 71.62 37.19 71.54 37.4C71.44 37.6 71.35 37.8 71.27 38C71.18 38.19 71.09 38.38 71.01 38.58C70.91 38.79 70.82 38.99 70.73 39.21C70.64 39.39 70.56 39.58 70.48 39.77C70.38 39.96 70.3 40.16 70.22 40.36C70.12 40.57 70.02 40.78 69.94 41C69.85 41.18 69.77 41.37 69.69 41.56C69.59 41.76 69.5 41.96 69.42 42.17C69.32 42.36 69.24 42.56 69.16 42.76C69.06 42.96 68.97 43.16 68.89 43.36C68.82 43.5 68.75 43.64 68.69 43.78C68.68 43.75 68.66 43.71 68.65 43.68C68.58 43.47 68.5 43.26 68.41 43.06C68.36 42.92 68.31 42.77 68.25 42.64C68.17 42.38 68.07 42.12 67.96 41.88C67.89 41.68 67.82 41.49 67.74 41.3C67.67 41.09 67.59 40.88 67.5 40.68C67.43 40.48 67.36 40.28 67.27 40.09C67.22 39.95 67.17 39.81 67.11 39.67C67.03 39.41 66.93 39.15 66.82 38.9C66.75 38.71 66.68 38.51 66.6 38.33C66.53 38.12 66.45 37.91 66.36 37.71C66.29 37.51 66.22 37.31 66.13 37.11C66.06 36.92 66 36.73 65.91 36.54C65.85 36.35 65.78 36.16 65.7 35.98C65.63 35.77 65.55 35.55 65.46 35.35C65.39 35.14 65.31 34.93 65.22 34.73C65.15 34.54 65.08 34.34 65 34.16C64.93 33.95 64.85 33.74 64.76 33.54C64.69 33.34 64.62 33.14 64.53 32.95C64.48 32.81 64.43 32.67 64.37 32.53C64.29 32.27 64.19 32.01 64.08 31.76C64.01 31.57 63.94 31.37 63.86 31.19C62.92 28.18 60.05 26 56.66 26C52.43 26 49 29.4 49 33.59C49 34.65 49.22 35.66 49.62 36.58C49.69 36.79 49.77 37 49.86 37.21C49.91 37.35 49.96 37.49 50.01 37.63C50.09 37.89 50.19 38.15 50.3 38.4C50.37 38.6 50.44 38.8 50.53 38.99C50.6 39.19 50.67 39.38 50.75 39.57C50.82 39.78 50.9 39.99 50.99 40.19C51.06 40.38 51.13 40.58 51.21 40.76C51.27 40.95 51.34 41.14 51.42 41.32C51.49 41.53 51.57 41.74 51.66 41.95C51.73 42.16 51.81 42.37 51.9 42.58C51.97 42.78 52.04 42.98 52.13 43.17C52.2 43.36 52.27 43.56 52.35 43.74C52.42 43.95 52.5 44.16 52.59 44.36C52.64 44.5 52.69 44.64 52.75 44.78C52.83 45.04 52.93 45.3 53.04 45.55C53.11 45.75 53.18 45.95 53.27 46.14C53.34 46.33 53.41 46.53 53.49 46.71C53.56 46.92 53.64 47.12 53.72 47.32C53.77 47.47 53.82 47.61 53.88 47.76C53.96 48.02 54.06 48.27 54.17 48.52C54.24 48.72 54.31 48.91 54.39 49.1C54.46 49.31 54.54 49.52 54.63 49.72C54.7 49.91 54.77 50.11 54.85 50.29C54.92 50.5 55 50.71 55.09 50.91C55.15 51.09 55.21 51.27 55.29 51.45C55.36 51.66 55.44 51.88 55.53 52.08C55.6 52.29 55.68 52.5 55.77 52.7C55.84 52.89 55.9 53.08 55.99 53.27C56.06 53.48 56.14 53.69 56.23 53.89C56.3 54.08 56.37 54.28 56.45 54.46C56.51 54.65 56.58 54.84 56.66 55.03C56.73 55.25 56.81 55.46 56.91 55.67C56.98 55.86 57.05 56.06 57.13 56.24C57.2 56.45 57.28 56.66 57.37 56.86C57.44 57.06 57.51 57.25 57.59 57.44C57.66 57.65 57.74 57.86 57.82 58.06C57.87 58.2 57.92 58.34 57.97 58.48C58.05 58.75 58.15 59 58.26 59.26C58.33 59.46 58.4 59.66 58.48 59.85C58.55 60.05 58.62 60.24 58.7 60.43C58.77 60.64 58.85 60.85 58.94 61.05C59.01 61.24 59.07 61.43 59.16 61.62C59.22 61.81 59.29 62 59.37 62.18C59.44 62.39 59.52 62.61 59.61 62.81C59.68 63.02 59.76 63.22 59.84 63.42C59.91 63.62 59.98 63.82 60.07 64.02C60.14 64.21 60.21 64.41 60.29 64.59C60.36 64.78 60.42 64.98 60.5 65.16C60.57 65.37 60.65 65.58 60.73 65.78C60.8 65.99 60.88 66.2 60.97 66.4C61.99 69.4 64.85 71.57 68.23 71.57C71.49 71.57 74.26 69.56 75.37 66.72C75.47 66.51 75.57 66.3 75.65 66.08C75.74 65.9 75.82 65.72 75.89 65.53C75.99 65.33 76.08 65.12 76.17 64.91C76.27 64.72 76.35 64.52 76.43 64.32C76.52 64.14 76.6 63.95 76.68 63.76C76.78 63.55 76.88 63.34 76.96 63.12C77.05 62.93 77.14 62.73 77.22 62.53C77.32 62.34 77.4 62.14 77.48 61.93C77.57 61.74 77.66 61.54 77.74 61.34C77.84 61.14 77.92 60.95 78 60.74C78.09 60.55 78.18 60.36 78.26 60.16C78.36 59.96 78.45 59.76 78.53 59.55C78.63 59.35 78.72 59.15 78.8 58.95C78.89 58.76 78.98 58.58 79.05 58.38C79.16 58.16 79.26 57.93 79.35 57.7C79.43 57.53 79.51 57.35 79.58 57.17C79.68 56.97 79.77 56.77 79.85 56.57C79.94 56.38 80.03 56.19 80.1 56C80.2 55.8 80.29 55.6 80.37 55.39C80.47 55.19 80.56 54.99 80.63 54.79C80.72 54.6 80.81 54.41 80.89 54.21C80.99 54.01 81.08 53.8 81.16 53.59C81.25 53.4 81.34 53.21 81.41 53.02C81.49 52.86 81.57 52.7 81.63 52.54C81.7 52.7 81.77 52.86 81.85 53.01C81.93 53.21 82.02 53.41 82.11 53.6C82.19 53.81 82.28 54.01 82.38 54.21C82.45 54.4 82.54 54.58 82.63 54.77C82.71 54.99 82.81 55.2 82.91 55.41C82.99 55.61 83.08 55.81 83.17 56C83.24 56.19 83.33 56.38 83.42 56.56C83.5 56.78 83.6 56.99 83.7 57.2C83.78 57.39 83.86 57.58 83.95 57.77C84.03 57.98 84.12 58.18 84.22 58.38C84.3 58.58 84.39 58.78 84.48 58.97C84.56 59.18 84.65 59.38 84.75 59.59C84.83 59.79 84.91 59.98 85.01 60.17C85.09 60.37 85.18 60.57 85.27 60.76C85.35 60.97 85.44 61.18 85.54 61.38C85.61 61.57 85.7 61.75 85.79 61.94C85.87 62.16 85.97 62.37 86.07 62.57C86.14 62.75 86.22 62.92 86.3 63.09C86.38 63.31 86.48 63.53 86.58 63.74C86.66 63.95 86.75 64.16 86.85 64.36C86.93 64.55 87.01 64.74 87.1 64.93C87.18 65.14 87.27 65.34 87.37 65.53C87.45 65.73 87.53 65.93 87.63 66.12C87.71 66.33 87.8 66.54 87.9 66.74C89.01 69.57 91.79 71.59 95.04 71.59C98.42 71.59 101.28 69.42 102.3 66.42C102.34 66.19 102.41 65.98 102.48 65.77Z" fill="#FF5500"/>
<path d="M185.57 48.48C185.82 48.29 186.06 48.08 186.28 47.86C186.51 47.68 186.73 47.49 186.94 47.28C187.18 47.09 187.4 46.9 187.62 46.68C187.86 46.49 188.09 46.29 188.3 46.08C188.53 45.9 188.75 45.71 188.95 45.51C189.2 45.31 189.44 45.1 189.67 44.88C189.89 44.7 190.11 44.52 190.31 44.32C190.56 44.13 190.8 43.92 191.02 43.7C191.24 43.52 191.46 43.34 191.66 43.13C191.91 42.93 192.15 42.73 192.37 42.5C192.59 42.32 192.81 42.13 193.01 41.93C193.25 41.74 193.49 41.54 193.7 41.32C193.94 41.13 194.16 40.94 194.38 40.72C194.62 40.53 194.84 40.34 195.06 40.12C195.3 39.93 195.52 39.74 195.74 39.52C197.51 38.13 198.64 35.99 198.64 33.58C198.64 29.39 195.21 25.99 190.98 25.99C188.85 25.99 186.92 26.85 185.54 28.24C185.3 28.43 185.08 28.62 184.86 28.83C184.62 29.02 184.4 29.21 184.19 29.43C183.95 29.62 183.73 29.81 183.51 30.03C183.28 30.21 183.06 30.4 182.85 30.61C182.6 30.81 182.36 31.01 182.14 31.24C181.92 31.42 181.7 31.6 181.5 31.81C181.25 32 181.01 32.21 180.79 32.43C180.57 32.61 180.35 32.8 180.15 33C179.9 33.19 179.66 33.4 179.44 33.62C179.21 33.8 179 33.99 178.79 34.19C178.55 34.38 178.32 34.58 178.1 34.8C177.86 34.99 177.64 35.18 177.42 35.4C177.18 35.59 176.96 35.78 176.74 36C176.5 36.19 176.26 36.4 176.05 36.61C175.91 36.72 175.77 36.84 175.64 36.96C175.64 36.93 175.64 36.9 175.64 36.87C175.64 36.77 175.66 36.67 175.66 36.57C175.66 36.47 175.65 36.37 175.64 36.27C175.64 36.17 175.66 36.07 175.66 35.97C175.66 35.87 175.65 35.77 175.64 35.67C175.64 35.57 175.66 35.47 175.66 35.37C175.66 35.27 175.65 35.17 175.64 35.07C175.64 34.97 175.66 34.87 175.66 34.77C175.66 34.67 175.65 34.57 175.64 34.47C175.64 34.37 175.66 34.27 175.66 34.17C175.66 34.07 175.65 33.97 175.64 33.87C175.64 33.77 175.66 33.67 175.66 33.57C175.66 29.38 172.23 25.98 168 25.98C163.76 25.98 160.34 29.38 160.34 33.57C160.34 33.67 160.35 33.77 160.36 33.87C160.36 33.97 160.34 34.07 160.34 34.17C160.34 34.27 160.35 34.37 160.36 34.47C160.36 34.57 160.34 34.67 160.34 34.77C160.34 34.87 160.35 34.97 160.36 35.07C160.36 35.17 160.34 35.27 160.34 35.37C160.34 35.47 160.35 35.57 160.36 35.67C160.36 35.77 160.34 35.87 160.34 35.97C160.34 36.07 160.35 36.17 160.36 36.27C160.36 36.37 160.34 36.47 160.34 36.57C160.34 36.67 160.35 36.77 160.36 36.87C160.36 36.97 160.34 37.07 160.34 37.17C160.34 37.27 160.35 37.37 160.36 37.47C160.36 37.57 160.34 37.67 160.34 37.77C160.34 37.87 160.35 37.97 160.36 38.07C160.36 38.17 160.34 38.27 160.34 38.37C160.34 38.47 160.35 38.57 160.36 38.67C160.36 38.77 160.34 38.87 160.34 38.97C160.34 39.07 160.35 39.17 160.36 39.27C160.36 39.37 160.34 39.47 160.34 39.57C160.34 39.67 160.35 39.77 160.36 39.87C160.36 39.97 160.34 40.07 160.34 40.17C160.34 40.27 160.35 40.37 160.36 40.47C160.36 40.57 160.34 40.67 160.34 40.77C160.34 40.87 160.35 40.97 160.36 41.07C160.36 41.17 160.34 41.27 160.34 41.37C160.34 41.47 160.35 41.57 160.36 41.67C160.36 41.77 160.34 41.87 160.34 41.97C160.34 42.07 160.35 42.17 160.36 42.27C160.36 42.37 160.34 42.47 160.34 42.57C160.34 42.67 160.35 42.77 160.36 42.87C160.36 42.97 160.34 43.07 160.34 43.17C160.34 43.27 160.35 43.37 160.36 43.47C160.36 43.57 160.34 43.67 160.34 43.77C160.34 43.87 160.35 43.97 160.36 44.07C160.36 44.17 160.34 44.27 160.34 44.37C160.34 44.47 160.35 44.57 160.36 44.67C160.36 44.77 160.34 44.87 160.34 44.97C160.34 45.07 160.35 45.17 160.36 45.27C160.36 45.37 160.34 45.47 160.34 45.57C160.34 45.67 160.35 45.77 160.36 45.87C160.36 45.97 160.34 46.07 160.34 46.17C160.34 46.27 160.35 46.37 160.36 46.47C160.36 46.57 160.34 46.67 160.34 46.77C160.34 46.87 160.35 46.97 160.36 47.07C160.36 47.17 160.34 47.27 160.34 47.37C160.34 47.47 160.35 47.57 160.36 47.67C160.36 47.77 160.34 47.87 160.34 47.97C160.34 48.07 160.35 48.17 160.36 48.27C160.36 48.37 160.34 48.47 160.34 48.57C160.34 48.67 160.35 48.77 160.36 48.87C160.36 48.97 160.34 49.07 160.34 49.17C160.34 49.27 160.35 49.37 160.36 49.47C160.36 49.57 160.34 49.67 160.34 49.77C160.34 49.87 160.35 49.97 160.36 50.07C160.36 50.17 160.34 50.27 160.34 50.37C160.34 50.47 160.35 50.57 160.36 50.67C160.36 50.77 160.34 50.87 160.34 50.97C160.34 51.07 160.35 51.17 160.36 51.27C160.36 51.37 160.34 51.47 160.34 51.57C160.34 51.67 160.35 51.77 160.36 51.87C160.36 51.97 160.34 52.07 160.34 52.17C160.34 52.27 160.35 52.37 160.36 52.47C160.36 52.57 160.34 52.67 160.34 52.77C160.34 52.87 160.35 52.97 160.36 53.07C160.36 53.17 160.34 53.27 160.34 53.37C160.34 53.47 160.35 53.57 160.36 53.67C160.36 53.77 160.34 53.87 160.34 53.97C160.34 54.07 160.35 54.17 160.36 54.27C160.36 54.37 160.34 54.47 160.34 54.57C160.34 54.67 160.35 54.77 160.36 54.87C160.36 54.97 160.34 55.07 160.34 55.17C160.34 55.27 160.35 55.37 160.36 55.47C160.36 55.57 160.34 55.67 160.34 55.77C160.34 55.87 160.35 55.97 160.36 56.07C160.36 56.17 160.34 56.27 160.34 56.37C160.34 56.47 160.35 56.57 160.36 56.67C160.36 56.77 160.34 56.87 160.34 56.97C160.34 57.07 160.35 57.17 160.36 57.27C160.36 57.37 160.34 57.47 160.34 57.57C160.34 57.67 160.35 57.77 160.36 57.87C160.36 57.97 160.34 58.07 160.34 58.17C160.34 58.27 160.35 58.37 160.36 58.47C160.36 58.57 160.34 58.67 160.34 58.77C160.34 58.87 160.35 58.97 160.36 59.07C160.36 59.17 160.34 59.27 160.34 59.37C160.34 59.47 160.35 59.57 160.36 59.67C160.36 59.77 160.34 59.87 160.34 59.97C160.34 60.07 160.35 60.17 160.36 60.27C160.36 60.37 160.34 60.47 160.34 60.57C160.34 60.67 160.35 60.77 160.36 60.87C160.36 60.97 160.34 61.07 160.34 61.17C160.34 61.27 160.35 61.37 160.36 61.47C160.36 61.57 160.34 61.67 160.34 61.77C160.34 61.87 160.35 61.97 160.36 62.07C160.36 62.17 160.34 62.27 160.34 62.37C160.34 62.47 160.35 62.57 160.36 62.67C160.36 62.77 160.34 62.87 160.34 62.97C160.34 63.07 160.35 63.17 160.36 63.27C160.36 63.37 160.34 63.47 160.34 63.57C160.34 63.67 160.35 63.77 160.36 63.87C160.36 63.97 160.34 64.07 160.34 64.17C160.34 68.36 163.77 71.76 168 71.76C172.23 71.76 175.66 68.36 175.66 64.17C175.66 64.07 175.65 63.97 175.64 63.87C175.64 63.77 175.66 63.67 175.66 63.57C175.66 63.47 175.65 63.37 175.64 63.27C175.64 63.17 175.66 63.07 175.66 62.97C175.66 62.87 175.65 62.77 175.64 62.67C175.64 62.57 175.66 62.47 175.66 62.37C175.66 62.27 175.65 62.17 175.64 62.07C175.64 61.97 175.66 61.87 175.66 61.77C175.66 61.67 175.65 61.57 175.64 61.47C175.64 61.37 175.66 61.27 175.66 61.17C175.66 61.07 175.65 60.97 175.64 60.87C175.64 60.84 175.64 60.81 175.64 60.78C175.78 60.91 175.92 61.03 176.07 61.15C176.28 61.35 176.49 61.55 176.72 61.73C176.94 61.95 177.18 62.16 177.43 62.36C177.63 62.56 177.85 62.75 178.07 62.92C178.29 63.14 178.53 63.35 178.78 63.54C178.99 63.75 179.21 63.94 179.45 64.12C179.66 64.33 179.88 64.52 180.11 64.7C180.33 64.92 180.56 65.12 180.8 65.31C181.01 65.52 181.24 65.72 181.47 65.9C181.68 66.11 181.91 66.31 182.14 66.49C182.35 66.7 182.58 66.9 182.82 67.08C183.03 67.29 183.26 67.49 183.5 67.68C183.72 67.9 183.95 68.1 184.2 68.29C184.4 68.49 184.61 68.67 184.84 68.85C185.06 69.07 185.3 69.28 185.55 69.48C186.94 70.86 188.86 71.71 190.98 71.71C195.21 71.71 198.64 68.31 198.64 64.12C198.64 61.7 197.5 59.56 195.72 58.17C195.52 57.97 195.3 57.78 195.08 57.6C194.86 57.38 194.62 57.17 194.37 56.98C194.16 56.77 193.94 56.58 193.71 56.4C193.5 56.19 193.27 55.99 193.04 55.81C192.83 55.6 192.6 55.4 192.36 55.21C192.15 55 191.92 54.8 191.69 54.62C191.48 54.41 191.25 54.21 191.01 54.02C190.8 53.81 190.57 53.61 190.34 53.43C190.13 53.22 189.9 53.02 189.66 52.83C189.44 52.61 189.21 52.41 188.96 52.22C188.76 52.02 188.55 51.84 188.32 51.66C188.1 51.43 187.86 51.23 187.61 51.03C187.41 50.83 187.19 50.64 186.97 50.47C186.75 50.25 186.52 50.05 186.28 49.86C186.07 49.65 185.84 49.45 185.61 49.27C185.5 49.16 185.38 49.06 185.26 48.95C185.35 48.68 185.46 48.58 185.57 48.48Z" fill="#FF5500"/>
<path d="M248.46 60.25C248.37 60.06 248.28 59.87 248.18 59.69C248.08 59.48 247.98 59.27 247.86 59.06C247.77 58.86 247.67 58.65 247.56 58.46C247.46 58.25 247.36 58.05 247.25 57.85C247.16 57.66 247.07 57.46 246.96 57.28C246.87 57.08 246.77 56.89 246.67 56.7C246.58 56.49 246.48 56.29 246.36 56.09C246.27 55.9 246.18 55.7 246.07 55.52C245.97 55.31 245.87 55.1 245.76 54.9C245.66 54.69 245.56 54.48 245.45 54.28C245.36 54.09 245.28 53.91 245.18 53.73C245.09 53.52 244.98 53.31 244.87 53.12C244.81 52.99 244.75 52.86 244.68 52.74C244.64 52.67 244.61 52.6 244.57 52.53C244.48 52.32 244.37 52.11 244.26 51.92C244.16 51.71 244.06 51.51 243.95 51.31C243.86 51.11 243.76 50.91 243.65 50.71C243.56 50.52 243.47 50.34 243.37 50.16C243.28 49.95 243.17 49.75 243.06 49.55C242.96 49.34 242.86 49.13 242.75 48.94C242.66 48.75 242.57 48.56 242.47 48.38C242.38 48.17 242.27 47.96 242.16 47.76C242.07 47.56 241.97 47.37 241.87 47.18C241.78 46.97 241.67 46.77 241.56 46.57C241.46 46.36 241.36 46.15 241.24 45.94C241.15 45.74 241.05 45.54 240.94 45.36C240.85 45.17 240.76 44.98 240.65 44.79C240.56 44.59 240.47 44.4 240.36 44.21C240.26 43.99 240.15 43.78 240.03 43.57C239.95 43.39 239.86 43.2 239.76 43.03C239.66 42.82 239.56 42.61 239.44 42.4C239.35 42.2 239.25 42 239.14 41.81C239.05 41.61 238.95 41.41 238.84 41.22C238.74 41.01 238.64 40.8 238.53 40.6C238.44 40.41 238.35 40.23 238.25 40.05C238.15 39.82 238.03 39.59 237.9 39.37C237.82 39.19 237.73 39.02 237.64 38.85C237.54 38.63 237.44 38.42 237.32 38.22C237.23 38.03 237.14 37.84 237.04 37.66C236.95 37.45 236.84 37.24 236.73 37.04C236.63 36.83 236.53 36.62 236.42 36.43C236.33 36.24 236.24 36.06 236.14 35.88C236.04 35.66 235.94 35.45 235.82 35.24C235.73 35.05 235.64 34.87 235.54 34.69C235.44 34.46 235.32 34.23 235.19 34.01C235.11 33.83 235.02 33.66 234.93 33.49C234.83 33.27 234.73 33.06 234.61 32.86C234.52 32.66 234.42 32.47 234.32 32.28C234.23 32.09 234.14 31.89 234.03 31.71C233.93 31.49 233.83 31.28 233.71 31.07C233.62 30.88 233.53 30.69 233.43 30.51C232.24 27.86 229.55 26 226.43 26C223.31 26 220.62 27.86 219.43 30.51C219.33 30.69 219.24 30.87 219.15 31.06C219.03 31.27 218.93 31.48 218.83 31.7C218.74 31.87 218.65 32.04 218.57 32.22C218.45 32.42 218.35 32.63 218.25 32.84C218.13 33.05 218.02 33.27 217.92 33.49C217.82 33.67 217.72 33.86 217.64 34.06C217.53 34.26 217.43 34.46 217.33 34.67C217.22 34.86 217.13 35.05 217.04 35.25C216.93 35.45 216.82 35.66 216.72 35.87C216.62 36.05 216.53 36.24 216.44 36.43C216.33 36.63 216.23 36.83 216.13 37.03C216.02 37.23 215.92 37.43 215.82 37.64C215.71 37.83 215.62 38.03 215.53 38.23C215.43 38.42 215.33 38.61 215.24 38.8C215.13 39 215.02 39.21 214.93 39.42C214.82 39.62 214.72 39.82 214.62 40.03C214.51 40.22 214.42 40.41 214.33 40.61C214.22 40.8 214.12 41 214.03 41.21C213.92 41.4 213.82 41.61 213.73 41.81C213.62 42 213.53 42.19 213.44 42.39C213.32 42.6 213.22 42.81 213.12 43.02C213.02 43.2 212.93 43.38 212.85 43.57C212.74 43.76 212.65 43.95 212.55 44.15C212.43 44.35 212.33 44.56 212.23 44.78C212.12 44.97 212.03 45.16 211.94 45.35C211.82 45.56 211.72 45.77 211.62 45.98C211.52 46.16 211.42 46.35 211.34 46.55C211.23 46.75 211.12 46.96 211.03 47.17C210.92 47.36 210.83 47.55 210.74 47.75C210.63 47.95 210.52 48.16 210.43 48.37C210.33 48.55 210.24 48.74 210.15 48.93C210.04 49.13 209.93 49.33 209.84 49.54C209.73 49.74 209.62 49.95 209.53 50.16C209.44 50.32 209.36 50.49 209.28 50.66C209.15 50.88 209.03 51.12 208.92 51.35C208.82 51.53 208.72 51.72 208.64 51.92C208.53 52.12 208.43 52.32 208.33 52.53C208.29 52.6 208.26 52.67 208.22 52.73C208.15 52.85 208.09 52.98 208.03 53.11C207.92 53.31 207.81 53.52 207.72 53.73C207.62 53.91 207.53 54.09 207.44 54.28C207.33 54.48 207.22 54.68 207.13 54.89C207.02 55.09 206.92 55.29 206.82 55.5C206.73 55.66 206.65 55.83 206.56 56.01C206.43 56.24 206.31 56.47 206.2 56.71C206.1 56.89 206.01 57.08 205.92 57.27C205.81 57.47 205.7 57.68 205.6 57.9C205.5 58.08 205.41 58.26 205.33 58.45C205.22 58.65 205.11 58.86 205.02 59.07C204.91 59.26 204.81 59.46 204.72 59.66C204.61 59.85 204.51 60.05 204.42 60.26C203.8 61.36 203.44 62.62 203.44 63.96C203.44 68.15 206.87 71.55 211.11 71.55C214.22 71.55 216.9 69.71 218.1 67.07C218.21 66.87 218.31 66.67 218.4 66.47C218.51 66.28 218.6 66.08 218.69 65.89C218.8 65.7 218.89 65.51 218.98 65.32C219.1 65.11 219.21 64.89 219.31 64.67C219.41 64.49 219.5 64.3 219.59 64.11C219.62 64.06 219.65 64.01 219.67 63.96C219.74 63.96 219.82 63.97 219.89 63.97C219.97 63.97 220.04 63.96 220.12 63.96C220.2 63.96 220.27 63.97 220.35 63.97C220.43 63.97 220.5 63.96 220.57 63.96C220.64 63.96 220.72 63.97 220.79 63.97C220.87 63.97 220.94 63.96 221.02 63.96C221.1 63.96 221.17 63.97 221.25 63.97C221.33 63.97 221.4 63.96 221.48 63.96C221.56 63.96 221.63 63.97 221.71 63.97C221.79 63.97 221.86 63.96 221.93 63.96C222 63.96 222.08 63.97 222.15 63.97C222.23 63.97 222.3 63.96 222.38 63.96C222.46 63.96 222.53 63.97 222.61 63.97C222.69 63.97 222.76 63.96 222.83 63.96C222.9 63.96 222.98 63.97 223.05 63.97C223.13 63.97 223.2 63.96 223.28 63.96C223.36 63.96 223.43 63.97 223.51 63.97C223.59 63.97 223.66 63.96 223.74 63.96C223.82 63.96 223.89 63.97 223.97 63.97C224.05 63.97 224.12 63.96 224.19 63.96C224.26 63.96 224.34 63.97 224.41 63.97C224.49 63.97 224.56 63.96 224.64 63.96C224.72 63.96 224.79 63.97 224.87 63.97C224.95 63.97 225.02 63.96 225.1 63.96C225.18 63.96 225.25 63.97 225.33 63.97C225.41 63.97 225.48 63.96 225.55 63.96C225.62 63.96 225.7 63.97 225.77 63.97C225.85 63.97 225.92 63.96 226 63.96C226.08 63.96 226.15 63.97 226.23 63.97C226.31 63.97 226.38 63.96 226.46 63.96C226.54 63.96 226.61 63.97 226.69 63.97C226.77 63.97 226.84 63.96 226.91 63.96C226.98 63.96 227.06 63.97 227.13 63.97C227.21 63.97 227.28 63.96 227.36 63.96C227.44 63.96 227.51 63.97 227.59 63.97C227.67 63.97 227.74 63.96 227.82 63.96C227.9 63.96 227.97 63.97 228.05 63.97C228.13 63.97 228.2 63.96 228.27 63.96C228.34 63.96 228.42 63.97 228.49 63.97C228.57 63.97 228.64 63.96 228.72 63.96C228.8 63.96 228.87 63.97 228.95 63.97C229.03 63.97 229.1 63.96 229.18 63.96C229.26 63.96 229.33 63.97 229.41 63.97C229.49 63.97 229.56 63.96 229.63 63.96C229.7 63.96 229.78 63.97 229.85 63.97C229.93 63.97 230 63.96 230.08 63.96C230.16 63.96 230.23 63.97 230.31 63.97C230.39 63.97 230.46 63.96 230.54 63.96C230.62 63.96 230.69 63.97 230.77 63.97C230.85 63.97 230.92 63.96 230.99 63.96C231.06 63.96 231.14 63.97 231.21 63.97C231.29 63.97 231.36 63.96 231.44 63.96C231.52 63.96 231.59 63.97 231.67 63.97C231.75 63.97 231.82 63.96 231.9 63.96C231.98 63.96 232.05 63.97 232.13 63.97C232.21 63.97 232.28 63.96 232.35 63.96C232.42 63.96 232.5 63.97 232.57 63.97C232.65 63.97 232.72 63.96 232.8 63.96C232.88 63.96 232.95 63.97 233.03 63.97C233.1 63.97 233.17 63.96 233.25 63.96C233.28 64.01 233.3 64.05 233.33 64.1C233.43 64.32 233.53 64.53 233.65 64.73C233.74 64.93 233.84 65.12 233.95 65.31C234.04 65.51 234.13 65.7 234.24 65.88C234.33 66.08 234.43 66.27 234.53 66.46C234.63 66.67 234.73 66.88 234.85 67.08C236.05 69.71 238.72 71.55 241.83 71.55C246.06 71.55 249.5 68.15 249.5 63.96C249.44 62.61 249.08 61.35 248.46 60.25ZM228.63 52.95H224.7C223.6 52.95 222.87 51.8 223.34 50.81L225.3 46.66C225.84 45.51 227.47 45.51 228.01 46.66L229.97 50.81C230.46 51.81 229.73 52.95 228.63 52.95Z" fill="#FF5500"/>
<path d="M154.26 60.26C154.17 60.06 154.07 59.86 153.96 59.66C153.87 59.46 153.77 59.26 153.66 59.06C153.57 58.85 153.47 58.65 153.35 58.46C153.26 58.27 153.17 58.08 153.07 57.89C152.97 57.68 152.87 57.47 152.76 57.27C152.66 57.05 152.55 56.84 152.44 56.64C152.35 56.45 152.26 56.26 152.16 56.08C152.07 55.89 151.98 55.69 151.87 55.51C151.78 55.3 151.67 55.09 151.56 54.89C151.46 54.68 151.36 54.47 151.25 54.27C151.16 54.08 151.08 53.9 150.98 53.72C150.88 53.51 150.78 53.3 150.67 53.1C150.61 52.98 150.56 52.85 150.49 52.73C150.45 52.65 150.41 52.58 150.37 52.5C150.28 52.29 150.18 52.09 150.07 51.9C149.98 51.7 149.88 51.51 149.78 51.32C149.68 51.09 149.56 50.87 149.44 50.66C149.36 50.48 149.27 50.31 149.18 50.14C149.09 49.93 148.99 49.73 148.88 49.54C148.78 49.33 148.68 49.12 148.56 48.91C148.47 48.72 148.39 48.54 148.29 48.36C148.19 48.15 148.09 47.94 147.98 47.74C147.89 47.54 147.79 47.35 147.69 47.16C147.6 46.95 147.5 46.75 147.38 46.55C147.29 46.35 147.19 46.15 147.08 45.96C146.99 45.75 146.89 45.55 146.78 45.36C146.68 45.14 146.57 44.93 146.45 44.72C146.37 44.54 146.28 44.36 146.18 44.19C146.08 43.97 145.98 43.76 145.86 43.56C145.77 43.37 145.69 43.19 145.59 43.01C145.49 42.8 145.39 42.59 145.27 42.38C145.18 42.18 145.08 41.98 144.97 41.79C144.88 41.59 144.78 41.39 144.67 41.19C144.57 40.98 144.47 40.77 144.36 40.57C144.27 40.38 144.18 40.2 144.08 40.02C143.98 39.81 143.88 39.6 143.77 39.4C143.67 39.19 143.57 38.98 143.45 38.78C143.36 38.58 143.26 38.39 143.16 38.2C143.07 38.01 142.98 37.82 142.88 37.64C142.78 37.43 142.68 37.22 142.57 37.02C142.48 36.81 142.37 36.61 142.26 36.41C142.17 36.22 142.08 36.04 141.98 35.86C141.88 35.64 141.77 35.43 141.66 35.22C141.57 35.03 141.48 34.85 141.38 34.67C141.28 34.46 141.18 34.25 141.06 34.04C140.97 33.84 140.87 33.65 140.77 33.46C140.67 33.23 140.56 33.01 140.43 32.8C140.34 32.61 140.25 32.43 140.15 32.26C140.06 32.07 139.97 31.88 139.86 31.69C139.76 31.47 139.66 31.26 139.54 31.06C139.45 30.87 139.36 30.68 139.26 30.5C138.05 27.85 135.37 26 132.24 26C129.12 26 126.43 27.86 125.24 30.51C125.14 30.69 125.05 30.87 124.97 31.06C124.85 31.27 124.74 31.48 124.65 31.7C124.55 31.88 124.46 32.07 124.37 32.25C124.26 32.45 124.15 32.65 124.06 32.86C123.96 33.04 123.86 33.24 123.77 33.43C123.66 33.63 123.55 33.84 123.45 34.05C123.34 34.25 123.24 34.45 123.14 34.66C123.03 34.85 122.94 35.04 122.85 35.24C122.74 35.44 122.63 35.65 122.54 35.86C122.44 36.04 122.35 36.22 122.26 36.41C122.15 36.61 122.04 36.81 121.95 37.02C121.84 37.22 121.73 37.43 121.64 37.64C121.54 37.82 121.45 38.01 121.36 38.19C121.24 38.4 121.13 38.61 121.04 38.83C120.95 39 120.86 39.17 120.78 39.34C120.66 39.55 120.54 39.77 120.44 40C120.33 40.19 120.24 40.39 120.14 40.59C120.03 40.78 119.93 40.98 119.84 41.18C119.73 41.37 119.63 41.57 119.54 41.78C119.43 41.97 119.33 42.17 119.24 42.37C119.12 42.57 119.02 42.78 118.92 43C118.82 43.18 118.73 43.36 118.65 43.55C118.53 43.76 118.43 43.97 118.33 44.19C118.23 44.38 118.13 44.57 118.04 44.76C117.94 44.93 117.86 45.11 117.77 45.28C117.64 45.5 117.52 45.73 117.42 45.97C117.32 46.15 117.22 46.34 117.14 46.54C117.03 46.74 116.92 46.94 116.83 47.15C116.72 47.34 116.63 47.53 116.54 47.73C116.43 47.93 116.32 48.14 116.23 48.35C116.13 48.53 116.04 48.71 115.95 48.9C115.84 49.1 115.73 49.3 115.64 49.51C115.53 49.71 115.42 49.92 115.33 50.13C115.23 50.31 115.14 50.5 115.05 50.69C114.94 50.88 114.84 51.08 114.75 51.28C114.64 51.48 114.53 51.69 114.44 51.9C114.32 52.1 114.22 52.32 114.12 52.53C114.09 52.59 114.06 52.65 114.03 52.7C113.96 52.83 113.9 52.97 113.83 53.1C113.72 53.3 113.62 53.5 113.52 53.71C113.42 53.89 113.33 54.08 113.24 54.26C113.13 54.46 113.02 54.66 112.93 54.87C112.82 55.07 112.72 55.27 112.62 55.48C112.52 55.66 112.43 55.85 112.34 56.04C112.22 56.25 112.11 56.46 112.02 56.68C111.92 56.86 111.83 57.05 111.74 57.24C111.63 57.43 111.54 57.62 111.45 57.81C111.34 58.01 111.24 58.21 111.14 58.41C111.03 58.61 110.92 58.81 110.83 59.03C110.72 59.22 110.62 59.42 110.53 59.63C110.42 59.82 110.32 60.02 110.23 60.22C109.61 61.32 109.25 62.58 109.25 63.92C109.25 68.11 112.68 71.51 116.91 71.51C120.02 71.51 122.7 69.67 123.9 67.03C124.01 66.83 124.11 66.63 124.21 66.42C124.32 66.23 124.41 66.04 124.5 65.84C124.61 65.65 124.7 65.46 124.79 65.26C124.9 65.07 125 64.87 125.09 64.67C125.21 64.47 125.31 64.26 125.41 64.05C125.44 64 125.46 63.96 125.49 63.91C125.56 63.91 125.63 63.92 125.71 63.92C125.79 63.92 125.86 63.91 125.94 63.91C126.02 63.91 126.09 63.92 126.17 63.92C126.25 63.92 126.32 63.91 126.39 63.91C126.46 63.91 126.54 63.92 126.61 63.92C126.69 63.92 126.76 63.91 126.84 63.91C126.92 63.91 126.99 63.92 127.07 63.92C127.15 63.92 127.22 63.91 127.3 63.91C127.38 63.91 127.45 63.92 127.53 63.92C127.61 63.92 127.68 63.91 127.75 63.91C127.82 63.91 127.9 63.92 127.97 63.92C128.05 63.92 128.12 63.91 128.2 63.91C128.28 63.91 128.35 63.92 128.43 63.92C128.51 63.92 128.58 63.91 128.66 63.91C128.74 63.91 128.81 63.92 128.89 63.92C128.97 63.92 129.04 63.91 129.11 63.91C129.18 63.91 129.26 63.92 129.33 63.92C129.41 63.92 129.48 63.91 129.56 63.91C129.64 63.91 129.71 63.92 129.79 63.92C129.87 63.92 129.94 63.91 130.02 63.91C130.1 63.91 130.17 63.92 130.25 63.92C130.33 63.92 130.4 63.91 130.47 63.91C130.54 63.91 130.62 63.92 130.69 63.92C130.77 63.92 130.84 63.91 130.92 63.91C131 63.91 131.07 63.92 131.15 63.92C131.23 63.92 131.3 63.91 131.38 63.91C131.46 63.91 131.53 63.92 131.61 63.92C131.69 63.92 131.76 63.91 131.83 63.91C131.9 63.91 131.98 63.92 132.05 63.92C132.13 63.92 132.2 63.91 132.28 63.91C132.36 63.91 132.43 63.92 132.51 63.92C132.59 63.92 132.66 63.91 132.74 63.91C132.82 63.91 132.89 63.92 132.97 63.92C133.05 63.92 133.12 63.91 133.19 63.91C133.26 63.91 133.34 63.92 133.41 63.92C133.49 63.92 133.56 63.91 133.64 63.91C133.72 63.91 133.79 63.92 133.87 63.92C133.95 63.92 134.02 63.91 134.09 63.91C134.16 63.91 134.24 63.92 134.31 63.92C134.39 63.92 134.46 63.91 134.54 63.91C134.62 63.91 134.69 63.92 134.77 63.92C134.85 63.92 134.92 63.91 135 63.91C135.08 63.91 135.15 63.92 135.23 63.92C135.31 63.92 135.38 63.91 135.45 63.91C135.52 63.91 135.6 63.92 135.67 63.92C135.75 63.92 135.82 63.91 135.9 63.91C135.98 63.91 136.05 63.92 136.13 63.92C136.21 63.92 136.28 63.91 136.36 63.91C136.44 63.91 136.51 63.92 136.59 63.92C136.67 63.92 136.74 63.91 136.81 63.91C136.88 63.91 136.96 63.92 137.03 63.92C137.11 63.92 137.18 63.91 137.26 63.91C137.34 63.91 137.41 63.92 137.49 63.92C137.57 63.92 137.64 63.91 137.72 63.91C137.8 63.91 137.87 63.92 137.95 63.92C138.03 63.92 138.1 63.91 138.17 63.91C138.24 63.91 138.32 63.92 138.39 63.92C138.47 63.92 138.54 63.91 138.62 63.91C138.7 63.91 138.77 63.92 138.85 63.92C138.92 63.92 139 63.91 139.07 63.91C139.1 63.96 139.13 64.01 139.16 64.06C139.25 64.25 139.34 64.44 139.44 64.62C139.54 64.84 139.64 65.05 139.76 65.25C139.85 65.45 139.95 65.65 140.06 65.84C140.15 66.04 140.25 66.23 140.35 66.42C140.44 66.63 140.54 66.83 140.65 67.02C141.85 69.66 144.52 71.5 147.64 71.5C151.87 71.5 155.31 68.1 155.31 63.91C155.24 62.62 154.88 61.36 154.26 60.26ZM133.96 52.95H130.03C128.93 52.95 128.2 51.8 128.67 50.81L130.63 46.66C131.17 45.51 132.8 45.51 133.34 46.66L135.3 50.81C135.79 51.81 135.06 52.95 133.96 52.95Z" fill="#FF5500"/>
</g>
<path d="M34.16 81.34C34.1 84.38 34.22 94.1 25.92 98.3C26.38 98.6 26.86 99.06 27.12 99.46C32 96.86 34.12 92.38 35.04 88.38C36 92.1 38.14 97.04 43.14 99.38C43.36 98.96 43.8 98.46 44.22 98.12C37.16 94.98 35.96 86.62 35.66 84.24C35.76 83.06 35.78 82.06 35.8 81.34H34.16ZM59.96 81.34C59.9 84.38 60.02 94.1 51.72 98.3C52.18 98.6 52.66 99.06 52.92 99.46C57.8 96.86 59.92 92.38 60.84 88.38C61.8 92.1 63.94 97.04 68.94 99.38C69.16 98.96 69.6 98.46 70.02 98.12C62.96 94.98 61.76 86.62 61.46 84.24C61.56 83.06 61.58 82.06 61.6 81.34H59.96ZM81.54 87.98V84.88H86.24V83.58H81.54V81.3H80V87.48C80 88.24 79.46 88.56 79.08 88.7C79.3 89 79.54 89.62 79.64 89.98C80.08 89.74 80.8 89.56 86.48 88.32C86.44 88 86.4 87.42 86.42 87.04L81.54 87.98ZM91.6 94.34H81.86V92.34H91.6V94.34ZM81.86 97.58V95.52H91.6V97.58H81.86ZM85.56 89.08C85.4 89.66 85.08 90.44 84.78 91.08H80.38V99.54H81.86V98.84H91.6V99.54H93.12V91.08H86.28C86.56 90.58 86.86 90.02 87.14 89.44L85.56 89.08ZM89.98 88.34C89.02 88.34 88.84 88.22 88.84 87.6V85.74C90.86 85.22 93.08 84.5 94.68 83.74L93.62 82.62C92.48 83.28 90.62 83.94 88.84 84.48V81.3H87.38V87.6C87.38 89.22 87.88 89.66 89.84 89.66H93.38C94.92 89.66 95.38 89.08 95.56 86.88C95.14 86.8 94.56 86.58 94.24 86.34C94.14 88.04 94.02 88.34 93.26 88.34H89.98ZM112.28 88.52V93.08H107.06V88.52H112.28ZM113.74 94.5V87.08H105.62V96.1H107.06V94.5H113.74ZM121.28 82.68H103.58V84.16H117.3V97.38C117.3 97.8 117.16 97.94 116.72 97.96C116.26 97.98 114.62 98 113.02 97.92C113.26 98.34 113.56 99.08 113.66 99.5C115.62 99.5 117 99.5 117.8 99.22C118.56 99 118.82 98.46 118.82 97.4V84.16H121.28V82.68ZM131.74 92.38C133.38 90.62 134.98 88.44 136.38 86.24L135.14 85.5C134.74 86.22 134.26 86.96 133.8 87.68L131.06 87.92C132.32 86.24 133.58 84.04 134.56 81.94L133.16 81.34C132.24 83.72 130.7 86.26 130.2 86.9C129.74 87.6 129.36 88.04 128.98 88.12C129.16 88.52 129.4 89.22 129.48 89.52C129.78 89.36 130.26 89.28 132.9 88.98C131.94 90.26 131.1 91.26 130.74 91.66C130.08 92.38 129.6 92.84 129.16 92.94C129.32 93.32 129.54 93.98 129.62 94.28C130.08 94.04 130.8 93.88 136.48 92.94C136.42 92.66 136.4 92.08 136.42 91.68L131.74 92.38ZM129.3 98.34C131.34 97.92 134.1 97.38 136.76 96.82L136.66 95.54C133.88 96.06 130.96 96.6 129.06 96.9L129.3 98.34ZM143.1 93.1C142.36 91.86 140.66 90.12 139.18 88.86L138.16 89.72C139.64 90.98 141.28 92.82 142 94.04L143.1 93.1ZM139.86 84.92C140.28 83.84 140.64 82.7 140.92 81.54L139.52 81.28C138.86 83.98 137.78 86.68 136.4 88.42C136.76 88.6 137.36 89 137.64 89.22C138.22 88.42 138.78 87.42 139.3 86.3H145.14C144.92 94.14 144.64 97.1 144.02 97.76C143.8 98.02 143.6 98.08 143.22 98.06C142.76 98.06 141.64 98.06 140.38 97.96C140.66 98.36 140.82 98.96 140.84 99.38C141.94 99.44 143.1 99.48 143.74 99.4C144.44 99.34 144.88 99.16 145.32 98.6C146.06 97.64 146.32 94.64 146.58 85.68C146.58 85.48 146.6 84.92 146.6 84.92H139.86ZM157.14 100.14C159.24 99.4 160.6 97.76 160.6 95.6C160.6 94.2 160 93.3 158.9 93.3C158.08 93.3 157.38 93.8 157.38 94.74C157.38 95.68 158.06 96.16 158.88 96.16C159 96.16 159.1 96.16 159.22 96.14C159.12 97.5 158.24 98.44 156.7 99.08L157.14 100.14ZM198.5 84.22V82.78H181.1V84.22H186.48C186.36 89.32 186.08 95.48 180.54 98.42C180.94 98.7 181.38 99.18 181.62 99.58C185.56 97.38 187.04 93.66 187.62 89.74H195.1C194.82 95.02 194.48 97.22 193.88 97.76C193.64 97.98 193.4 98.02 192.94 98.02C192.4 98.02 190.96 98.02 189.46 97.86C189.76 98.28 189.96 98.88 189.98 99.32C191.36 99.42 192.74 99.46 193.5 99.4C194.26 99.34 194.74 99.18 195.2 98.68C195.98 97.84 196.3 95.46 196.66 89.02C196.68 88.82 196.68 88.3 196.68 88.3H187.8C187.94 86.92 188 85.54 188.04 84.22H198.5ZM221.08 95.36H216.28V93.86H221.08V95.36ZM216.28 91.28H221.08V92.68H216.28V91.28ZM210.5 87.74V86.3H214.8V87.74H210.5ZM220.76 86.3V87.74H216.28V86.3H220.76ZM224.62 92.68H222.56V90.18H216.28V88.78H222.24V85.26H216.28V84.1H224.24V82.88H216.28V81.28H214.8V82.88H207V84.1H214.8V85.26H209.08V88.78H214.8V90.18H208.52V91.28H214.8V92.68H206.62V93.86H214.8V95.36H208.34V96.5H214.8V97.88C214.8 98.22 214.68 98.34 214.3 98.36C213.96 98.36 212.76 98.38 211.56 98.34C211.76 98.68 212 99.22 212.08 99.6C213.74 99.6 214.78 99.58 215.4 99.36C216 99.14 216.28 98.8 216.28 97.88V96.5H221.08V97.4H222.56V93.86H224.62V92.68ZM237.7 87.3V84.9H240.04C239.52 85.74 238.92 86.54 238.3 87.3H237.7ZM240.28 93.72H235.8V91.78H240.28V93.72ZM235.8 97.02V94.92H240.28V97.02H235.8ZM241.58 81.98C241.16 82.92 240.72 83.82 240.18 84.68V83.58H237.7V81.44H236.3V83.58H233.24V84.9H236.3V87.3H232.34V88.62H237.08C235.58 90.12 233.84 91.36 231.9 92.32C232.18 92.62 232.66 93.24 232.84 93.54C233.38 93.24 233.92 92.92 234.42 92.58V99.44H235.8V98.26H240.28V99.16H241.7V90.56H237.04C237.72 89.96 238.34 89.3 238.94 88.62H242.6V87.3H240.02C241.14 85.82 242.14 84.18 242.92 82.36L241.58 81.98ZM249.54 82.34L249.3 82.4H243.44V99.54H244.9V83.82H248.62C247.98 85.42 247.04 87.54 246.18 89.24C248.28 90.98 248.9 92.48 248.9 93.74C248.92 94.46 248.76 95.06 248.32 95.3C248.06 95.44 247.72 95.52 247.38 95.54C246.94 95.58 246.34 95.56 245.68 95.5C245.94 95.92 246.1 96.54 246.12 96.96C246.74 97 247.44 97 247.98 96.94C248.48 96.88 248.96 96.74 249.32 96.48C250.06 96.02 250.36 95.1 250.34 93.88C250.34 92.46 249.8 90.9 247.7 89.04C248.66 87.2 249.76 84.92 250.6 83.04L249.54 82.34ZM267.08 88.52V93.08H261.86V88.52H267.08ZM268.54 94.5V87.08H260.42V96.1H261.86V94.5H268.54ZM276.08 82.68H258.38V84.16H272.1V97.38C272.1 97.8 271.96 97.94 271.52 97.96C271.06 97.98 269.42 98 267.82 97.92C268.06 98.34 268.36 99.08 268.46 99.5C270.42 99.5 271.8 99.5 272.6 99.22C273.36 99 273.62 98.46 273.62 97.4V84.16H276.08V82.68ZM286.22 94.92V91.64H288.64V94.52L286.22 94.92ZM288.64 83.48V86.28H286.22V83.48H288.64ZM286.22 87.54H288.64V90.4H286.22V87.54ZM290.64 94.2L289.86 94.32V83.48H290.84V82.12H283.96V83.48H285.04V95.08L283.7 95.28L284 96.58C285.3 96.34 286.94 96.06 288.64 95.76V99.54H289.86V95.54L290.74 95.38L290.64 94.2ZM292.66 84.28C293.82 83.76 295.24 83 296.36 82.26L295.26 81.34C294.3 82.06 292.62 83.06 291.42 83.64V93.26C291.42 94.04 291.08 94.4 290.84 94.54C291.02 94.8 291.3 95.3 291.4 95.6C291.66 95.38 292.04 95.18 294.1 94.52C293.6 96.08 292.64 97.62 290.76 98.68C291.04 98.9 291.42 99.32 291.6 99.6C295.44 97.28 295.82 93.4 295.82 90.42V84.62H294.58V90.4C294.58 91.26 294.56 92.24 294.38 93.24L292.66 93.76V84.28ZM301.52 83.14H297.02V99.54H298.26V84.4H300.32V94.34C300.32 94.56 300.24 94.62 300.04 94.64C299.84 94.66 299.2 94.66 298.42 94.64C298.6 94.96 298.74 95.46 298.8 95.78C299.9 95.78 300.56 95.76 300.96 95.56C301.4 95.34 301.52 94.98 301.52 94.34V83.14Z" fill="#333333"/>
<path fill-rule="evenodd" clip-rule="evenodd" d="M277.766 13.5997C276.791 5.84263 270.265 0.0102562 262.421 0C259.005 0.0512811 255.821 1.13844 253.026 3.36062C246.935 8.20498 245.313 17.2715 249.582 23.5483C249.711 23.7363 249.768 23.9312 249.768 24.1602C249.751 26.5021 248.888 28.4371 247.094 29.9277C247.074 29.944 247.054 29.9601 247.034 29.9761C246.882 30.0971 246.734 30.2156 246.79 30.4541C246.85 30.7171 247.059 30.7394 247.26 30.7609C247.273 30.7623 247.286 30.7638 247.299 30.7652C249.96 31.0798 252.422 30.502 254.661 29.0183C254.941 28.8337 255.127 28.8405 255.41 29.0012C258.408 30.7208 261.571 31.5071 265.042 30.9191C273.152 29.5448 278.804 21.8902 277.766 13.5997ZM258.203 19.4685C258.203 19.1853 258.204 18.9024 258.205 18.6197V18.6195C258.207 17.9602 258.209 17.3015 258.2 16.6412C258.196 16.2925 258.294 16.0463 258.601 15.8617C259.134 15.5438 259.518 15.0686 259.849 14.5455C260.28 13.8584 260.712 13.1709 261.143 12.4834C262.006 11.1083 262.868 9.73312 263.734 8.36101C264.203 7.61572 264.931 7.3559 265.632 7.68068C266.361 8.01914 266.641 8.74049 266.378 9.61227C266.084 10.5764 265.788 11.5404 265.491 12.5045C265.353 12.9592 265.353 12.9626 265.808 12.9626C266.374 12.9643 266.94 12.9643 267.506 12.9643H267.507C268.072 12.9643 268.638 12.9643 269.204 12.9661C270.266 12.9695 270.944 13.79 270.732 14.8361C270.229 17.3079 269.723 19.7796 269.207 22.2514C269.042 23.0445 268.486 23.571 267.723 23.571C267.17 23.571 266.616 23.5776 266.062 23.5842C264.622 23.6013 263.181 23.6185 261.744 23.5197C260.825 23.4576 259.926 23.2828 259.027 23.1079L258.753 23.0548C258.368 22.9795 258.2 22.7676 258.203 22.3778C258.205 21.7303 258.205 21.0828 258.204 20.4363C258.203 20.1134 258.203 19.7907 258.203 19.4685ZM257.5 20.2072V20.2075C257.501 20.9266 257.502 21.6462 257.5 22.3643C257.496 22.9694 257.422 23.0412 256.815 23.0446C256.551 23.0461 256.288 23.0449 256.025 23.0437H256.025C255.696 23.0423 255.367 23.0408 255.038 23.0446C254.684 23.048 254.518 22.8805 254.518 22.5249V22.5238C254.518 20.2712 254.518 18.0221 254.515 15.7695C254.515 15.4105 254.697 15.2464 255.041 15.2464C255.253 15.2464 255.464 15.2457 255.675 15.2449C256.096 15.2434 256.517 15.2419 256.94 15.2464C257.375 15.2533 257.493 15.3695 257.496 15.8105C257.498 16.3644 257.498 16.9174 257.498 17.4703C257.498 18.0233 257.498 18.5763 257.5 19.1301C257.5 19.4888 257.5 19.8479 257.5 20.2072Z" fill="#FF5500"/>
<defs>
<clipPath id="clip0">
<rect width="200.44" height="45.56" fill="white" transform="translate(49 26)"/>
</clipPath>
</defs>
</svg>
